<svg width="54" height="54" viewBox="0 0 54 54" fill="none" xmlns="http://www.w3.org/2000/svg">
<g clip-path="url(#clip0)">
<path d="M51.4777 15.4324H36.6032C36.7844 14.685 36.8813 13.9051 36.8813 13.1027C36.8813 7.654 32.4484 3.22119 26.9997 3.22119C25.4388 3.22119 23.9452 3.57491 22.5602 4.27242C22.1701 4.46889 22.013 4.94452 22.2096 5.33462C22.4062 5.72471 22.8817 5.88174 23.2718 5.68527C24.434 5.09997 25.6882 4.8032 26.9997 4.8032C31.5762 4.8032 35.2994 8.52637 35.2994 13.1028C35.2994 17.6793 31.5761 21.4024 26.9997 21.4024C22.4234 21.4024 18.7002 17.6793 18.7002 13.1028C18.7002 11.1442 19.3952 9.24308 20.6571 7.74966C20.9391 7.41598 20.8972 6.91694 20.5635 6.63505C20.2298 6.35294 19.7308 6.39502 19.4489 6.7287C17.946 8.50728 17.1183 10.771 17.1183 13.1029C17.1183 13.9053 17.2151 14.6853 17.3964 15.4327H2.52229C1.13148 15.4324 0 16.5639 0 17.9547V48.2592C0 49.6084 1.06504 50.7136 2.39859 50.7783C2.41209 50.779 51.588 50.779 51.6015 50.7783C52.9351 50.7136 54.0001 49.6084 54.0001 48.2592V17.9547C54 16.5639 52.8685 15.4324 51.4777 15.4324ZM17.9264 17.0143C19.4447 20.5229 22.94 22.9842 26.9998 22.9842C31.0597 22.9842 34.555 20.5229 36.0734 17.0143H49.3767L28.1623 34.6945C27.4515 35.1379 26.5485 35.1379 25.8377 34.6945L4.62338 17.0143H17.9264ZM2.2154 49.1473C1.84735 49.0197 1.5819 48.6703 1.5819 48.2593V17.9547C1.5819 17.5438 1.84735 17.1945 2.2154 17.0668L21.462 33.107L2.2154 49.1473ZM52.4181 48.2593C52.4181 48.6703 52.1528 49.0195 51.7847 49.1472L38.6004 38.1524C38.2649 37.8725 37.7662 37.9178 37.4864 38.2533C37.2066 38.5888 37.2517 39.0875 37.5872 39.3673L49.3778 49.1998H4.62338L22.6975 34.1368L24.8634 35.9418C24.8873 35.9617 24.9121 35.9801 24.9382 35.997C25.5644 36.4049 26.2822 36.6089 27.0001 36.6089C27.7179 36.6089 28.4356 36.4049 29.0619 35.997C29.088 35.98 29.1128 35.9617 29.1367 35.9418L31.3026 34.1368L34.7526 37.012C35.0883 37.2918 35.5869 37.2466 35.8666 36.9109C36.1462 36.5753 36.101 36.0765 35.7654 35.7969L32.538 33.1073L51.7846 17.0671C52.1526 17.1947 52.4181 17.5441 52.4181 17.9551V48.2593Z" fill="white" fill-opacity="0.6"/>
<path d="M23.8183 17.1021C24.3619 17.6972 25.1359 18.0395 25.942 18.0415H25.9488C26.7523 18.0415 27.5251 17.7031 28.07 17.1124L32.3863 12.4337C32.8471 11.9342 33.086 11.2851 33.0585 10.606C33.0311 9.92698 32.741 9.29918 32.2415 8.83842C31.2103 7.88706 29.5975 7.95203 28.6461 8.98322L25.9656 11.8889L25.3608 11.2332C24.8992 10.7328 24.2703 10.4422 23.5902 10.4147C22.9102 10.3883 22.2598 10.6264 21.7595 11.0881C20.7315 12.0364 20.6627 13.6478 21.606 14.6804L23.8183 17.1021ZM22.832 12.2507C23.012 12.0846 23.243 11.9945 23.4865 11.9945C23.4998 11.9945 23.5131 11.9947 23.5264 11.9953C23.7843 12.0057 24.0229 12.1159 24.198 12.3057L25.1426 13.3297C25.3539 13.5587 25.6538 13.6901 25.9655 13.6901H25.9656C26.2772 13.6901 26.5772 13.5588 26.7885 13.3298L29.8089 10.0557C30.1686 9.66565 30.7789 9.64118 31.1689 10.0009H31.169C31.3579 10.1752 31.4677 10.4126 31.478 10.6695C31.4884 10.9264 31.3981 11.1719 31.2237 11.3609L26.9075 16.0397C26.6577 16.3105 26.3174 16.4594 25.9492 16.4594C25.9481 16.4594 25.947 16.4594 25.9459 16.4594C25.5763 16.4586 25.2356 16.3078 24.9863 16.0349L22.7738 13.6131C22.416 13.2217 22.4422 12.6104 22.832 12.2507V12.2507Z" fill="white" fill-opacity="0.6"/>
</g>
<defs>
<clipPath id="clip0">
<rect width="54" height="54" fill="white"/>
</clipPath>
</defs>
</svg>
