<svg width="52" height="54" viewBox="0 0 52 54" fill="none" xmlns="http://www.w3.org/2000/svg">
<path d="M30.0177 24.6737C29.6646 24.4035 29.1535 24.4632 28.8761 24.8065L26.5587 27.6718L25.3673 26.3495C25.0715 26.0209 24.5577 25.988 24.22 26.2757C23.8822 26.5633 23.8482 27.0628 24.1441 27.3911L25.6511 29.0637C25.8887 29.3277 26.2241 29.4774 26.575 29.4774C26.5856 29.4774 26.5961 29.4773 26.6066 29.477C26.9703 29.4677 27.3117 29.2984 27.5431 29.0124L30.1543 25.7837C30.4318 25.4405 30.3707 24.9435 30.0177 24.6737Z" fill="white" fill-opacity="0.6"/>
<path d="M46.933 24.5046H33.0595C32.6104 24.5046 32.2465 24.8585 32.2465 25.2951C32.2465 25.7318 32.6104 26.0856 33.0595 26.0856H46.933C47.3821 26.0856 47.7461 25.7318 47.7461 25.2951C47.7461 24.8585 47.3821 24.5046 46.933 24.5046Z" fill="white" fill-opacity="0.6"/>
<path d="M46.933 27.8965H33.0595C32.6104 27.8965 32.2465 28.2503 32.2465 28.687C32.2465 29.1236 32.6104 29.4774 33.0595 29.4774H46.933C47.3821 29.4774 47.7461 29.1236 47.7461 28.687C47.7461 28.2503 47.3821 27.8965 46.933 27.8965Z" fill="white" fill-opacity="0.6"/>
<path d="M30.0177 34.2152C29.6646 33.945 29.1535 34.0047 28.8761 34.348L26.5587 37.2133L25.3673 35.891C25.0715 35.5624 24.5577 35.5295 24.22 35.8172C23.8822 36.1048 23.8482 36.6043 24.1441 36.9326L25.6511 38.6052C25.8887 38.8692 26.2241 39.0189 26.575 39.0189C26.5856 39.0189 26.5961 39.0188 26.6066 39.0185C26.9703 39.0092 27.3117 38.8399 27.5431 38.5539L30.1543 35.3252C30.4318 34.9819 30.3707 34.4849 30.0177 34.2152Z" fill="white" fill-opacity="0.6"/>
<path d="M46.933 34.0459H33.0595C32.6104 34.0459 32.2465 34.3997 32.2465 34.8364C32.2465 35.273 32.6104 35.6269 33.0595 35.6269H46.933C47.3821 35.6269 47.7461 35.273 47.7461 34.8364C47.7461 34.3997 47.3821 34.0459 46.933 34.0459Z" fill="white" fill-opacity="0.6"/>
<path d="M47.7461 38.2282C47.7461 37.7916 47.3821 37.4377 46.933 37.4377H33.0595C32.6104 37.4377 32.2465 37.7916 32.2465 38.2282C32.2465 38.6649 32.6104 39.0187 33.0595 39.0187H46.933C47.3821 39.0187 47.7461 38.6649 47.7461 38.2282Z" fill="white" fill-opacity="0.6"/>
<path d="M30.0177 43.7564C29.6646 43.4863 29.1535 43.5459 28.8761 43.8892L26.5587 46.7545L25.3673 45.4322C25.0715 45.1037 24.5577 45.0706 24.22 45.3584C23.8822 45.6461 23.8482 46.1455 24.1441 46.4739L25.6511 48.1465C25.8887 48.4105 26.2241 48.5602 26.575 48.5602C26.5856 48.5602 26.5961 48.5601 26.6066 48.5598C26.9703 48.5505 27.3117 48.3812 27.5431 48.0952L30.1543 44.8665C30.4318 44.5233 30.3707 44.0262 30.0177 43.7564Z" fill="white" fill-opacity="0.6"/>
<path d="M38.5932 43.5874H33.0595C32.6104 43.5874 32.2465 43.9412 32.2465 44.3779C32.2465 44.8145 32.6104 45.1684 33.0595 45.1684H38.5932C39.0424 45.1684 39.4063 44.8145 39.4063 44.3779C39.4063 43.9412 39.0424 43.5874 38.5932 43.5874Z" fill="white" fill-opacity="0.6"/>
<path d="M38.5932 46.979H33.0595C32.6104 46.979 32.2465 47.3328 32.2465 47.7695C32.2465 48.2061 32.6104 48.56 33.0595 48.56H38.5932C39.0424 48.56 39.4063 48.2061 39.4063 47.7695C39.4063 47.3328 39.0424 46.979 38.5932 46.979Z" fill="white" fill-opacity="0.6"/>
<path d="M50.1028 0H45.1884C44.7392 0 44.3753 0.353815 44.3753 0.790471C44.3753 1.22713 44.7392 1.58094 45.1884 1.58094H50.1028C50.2523 1.58094 50.3739 1.69909 50.3739 1.84443V44.961H45.0634C43.6021 44.961 42.4132 46.1168 42.4132 47.5374V52.401H16.3275C16.6777 51.8695 16.8818 51.2386 16.8818 50.562V37.2931C17.3067 37.507 17.7897 37.6286 18.3023 37.6286C19.9633 37.6286 21.3147 36.3147 21.3147 34.6998V27.0524C21.3147 24.7795 20.5717 22.6219 19.166 20.8129C17.8066 19.0635 15.8743 17.7548 13.7248 17.1278C13.6289 17.0998 13.5619 17.0091 13.5619 16.9073V16.2993C16.2474 15.1508 18.1281 12.5408 18.1281 9.51031C18.1281 6.42368 16.1774 3.77265 13.412 2.65862V1.84443C13.412 1.69909 13.5335 1.58094 13.683 1.58094H41.4213C41.8704 1.58094 42.2343 1.22713 42.2343 0.790471C42.2343 0.353815 41.8704 0 41.4213 0H13.6829C12.6369 0 11.7857 0.827465 11.7857 1.84443V2.20373C11.3682 2.13459 10.9397 2.09664 10.5022 2.09664C6.29734 2.09664 2.8764 5.42252 2.8764 9.51052C2.8764 12.6564 4.9031 15.349 7.75295 16.424V16.9074C7.75295 17.0092 7.68595 17.0999 7.59001 17.1279C6.4567 17.4587 5.39354 17.9687 4.43022 18.6439C4.06597 18.8993 3.98358 19.3933 4.24615 19.7475C4.50882 20.1017 5.01693 20.1816 5.38129 19.9264C6.1975 19.3542 7.09794 18.9222 8.05736 18.6421C8.83573 18.4153 9.37918 17.7019 9.37918 16.9074V16.8433C9.74582 16.8962 10.1207 16.9244 10.5022 16.9244C10.9923 16.9244 11.471 16.8775 11.9357 16.7912V16.9074C11.9357 17.7019 12.4793 18.4153 13.2575 18.6421C15.0782 19.1733 16.7157 20.2827 17.8683 21.766C19.0591 23.2983 19.6885 25.1263 19.6885 27.0525V34.6999C19.6885 35.4431 19.0667 36.0478 18.3022 36.0478C17.5893 36.0478 16.9793 35.5292 16.8817 34.8804V26.056C16.8817 25.6194 16.5178 25.2656 16.0686 25.2656C15.6195 25.2656 15.2556 25.6194 15.2556 26.056V50.562C15.2556 51.576 14.407 52.401 13.364 52.401C12.321 52.401 11.4723 51.576 11.4723 50.562V36.3008C11.4723 35.8643 11.1084 35.5105 10.6594 35.5104C10.6593 35.5104 10.6594 35.5104 10.6593 35.5104C10.2103 35.5104 9.84631 35.8641 9.84621 36.3006L9.84252 50.562C9.84252 51.576 8.9939 52.401 7.9509 52.401C6.9079 52.401 6.05928 51.576 6.05928 50.562V25.9214C6.05928 25.4848 5.69535 25.131 5.24621 25.131C4.79708 25.131 4.43315 25.4848 4.43315 25.9214L4.42675 34.6293C4.42675 35.3848 3.7659 36.0477 3.01267 36.0477C2.24818 36.0477 1.62624 35.443 1.62624 34.6998V27.0524C1.62624 25.4006 2.10042 23.7916 2.9975 22.3993C3.23578 22.0293 3.12065 21.5415 2.74003 21.3097C2.3594 21.0784 1.85769 21.19 1.6193 21.56C0.560039 23.2042 0 25.1035 0 27.0524V34.6998C0 36.3147 1.35142 37.6286 3.01257 37.6286C3.52165 37.6286 4.00624 37.4972 4.43304 37.2681V50.5619C4.43304 52.4477 6.01115 53.9819 7.95079 53.9819C9.03791 53.9819 10.0116 53.4999 10.6574 52.7442C11.3032 53.4999 12.2767 53.9819 13.364 53.9819H42.1036C42.7161 53.9819 43.3417 54.1047 43.8459 53.7094C44.0827 53.5238 44.2949 53.2956 44.5154 53.0924C45.4419 52.2384 50.2622 47.795 51.7463 46.4276C51.9083 46.2784 52 46.071 52 45.854V1.84443C52 0.827465 51.149 0 50.1028 0V0ZM10.5022 15.3435C7.19399 15.3435 4.50253 12.7268 4.50253 9.51042C4.50253 6.29415 7.19399 3.67748 10.5022 3.67748C13.8104 3.67748 16.5018 6.29415 16.5018 9.51042C16.5018 12.7268 13.8104 15.3435 10.5022 15.3435V15.3435ZM44.0393 51.3351V47.5374C44.0393 46.9885 44.4987 46.542 45.0634 46.542H49.1679L44.0393 51.3351Z" fill="white" fill-opacity="0.6"/>
<path d="M11.8904 12.5056C11.5328 12.2414 11.0229 12.309 10.751 12.6565C10.7341 12.6782 10.6959 12.7146 10.631 12.7146C10.5658 12.7146 10.5276 12.6778 10.5106 12.6559C10.2401 12.3073 9.73034 12.2382 9.37183 12.5011C9.01333 12.764 8.9421 13.2597 9.21258 13.6082C9.54659 14.0386 10.0769 14.2954 10.631 14.2954C11.1909 14.2954 11.7065 14.0468 12.0456 13.6132C12.3173 13.2658 12.2479 12.7698 11.8904 12.5056V12.5056Z" fill="white" fill-opacity="0.6"/>
<path d="M28.5164 7C29.5007 7 30.3168 7.15263 30.9647 7.45788C31.625 7.76313 31.9552 8.15385 31.9552 8.63004C31.9552 8.83761 31.8867 9.02686 31.7496 9.1978C31.6126 9.35653 31.4381 9.4359 31.2263 9.4359C31.0643 9.4359 30.9335 9.41148 30.8339 9.36264C30.7466 9.3138 30.622 9.23443 30.4601 9.12454C30.3853 9.05128 30.267 8.96581 30.105 8.86813C29.9555 8.79487 29.7437 8.73382 29.4696 8.68498C29.1955 8.63614 28.9463 8.61172 28.722 8.61172C28.0741 8.61172 27.501 8.75824 27.0026 9.05128C26.5043 9.34432 26.118 9.75336 25.8439 10.2784C25.5698 10.7912 25.4328 11.3651 25.4328 12C25.4328 12.6471 25.5636 13.2271 25.8253 13.7399C26.0994 14.2527 26.4794 14.6557 26.9653 14.9487C27.4512 15.2418 28.0056 15.3883 28.6286 15.3883C29.2765 15.3883 29.7997 15.2906 30.1984 15.0952C30.2856 15.0464 30.404 14.967 30.5535 14.8571C30.6781 14.7595 30.784 14.6862 30.8712 14.6374C30.9709 14.5885 31.0893 14.5641 31.2263 14.5641C31.4755 14.5641 31.6686 14.6435 31.8057 14.8022C31.9552 14.9487 32.0299 15.1441 32.0299 15.3883C32.0299 15.6447 31.8617 15.9011 31.5253 16.1575C31.2014 16.4017 30.7591 16.6032 30.1984 16.7619C29.6502 16.9206 29.0584 17 28.423 17C27.4761 17 26.6413 16.7863 25.9187 16.359C25.1961 15.9194 24.6354 15.3211 24.2367 14.5641C23.8505 13.7949 23.6573 12.9402 23.6573 12C23.6573 11.0598 23.8629 10.2112 24.2741 9.45421C24.6852 8.68498 25.2584 8.08669 25.9935 7.65934C26.7285 7.21978 27.5695 7 28.5164 7Z" fill="white" fill-opacity="0.6"/>
<path d="M41.3308 7.1282C41.5676 7.1282 41.7669 7.20757 41.9289 7.3663C42.0908 7.51282 42.1718 7.68987 42.1718 7.89744C42.1718 8.00733 42.1282 8.15995 42.041 8.35531L38.4901 16.2674C38.4154 16.4261 38.3095 16.5543 38.1724 16.652C38.0354 16.7497 37.8859 16.8046 37.7239 16.8169C37.5245 16.8413 37.3377 16.8046 37.1632 16.707C37.0013 16.6093 36.8767 16.4628 36.7895 16.2674L33.2386 8.35531C33.1763 8.17216 33.1451 8.01954 33.1451 7.89744C33.1451 7.70208 33.2261 7.52503 33.3881 7.3663C33.5501 7.20757 33.7619 7.1282 34.0235 7.1282C34.2104 7.1282 34.3786 7.17704 34.5281 7.27473C34.6776 7.3602 34.796 7.49451 34.8832 7.67766L37.7052 14.1062L40.5272 7.67766C40.7016 7.31135 40.9695 7.1282 41.3308 7.1282Z" fill="white" fill-opacity="0.6"/>
</svg>
