<svg width="64" height="64" viewBox="0 0 64 64" fill="none" xmlns="http://www.w3.org/2000/svg">
<g clip-path="url(#clip0)">
<path d="M63.0411 15.0948C57.2514 13.8576 51.4273 12.905 43.8519 14.8081C41.9651 15.2821 39.9766 15.7134 38.2372 15.66C37.2655 15.6303 36.2967 15.404 35.3598 15.1849L35.1933 15.1459C29.1142 13.729 22.2892 12.6933 13.5889 14.69C12.9703 14.8319 12.5659 15.4271 12.6617 16.0547L13.1617 19.3272C13.2506 19.909 13.7446 20.3429 14.333 20.3561C14.3923 20.3573 14.441 20.3633 14.4783 20.3704C14.6502 24.496 15.4746 27.3165 17.0706 29.2431C18.7777 31.3036 21.3665 32.3072 24.9849 32.311C24.9894 32.311 24.9938 32.311 24.9985 32.311C29.4478 32.311 32.4726 29.946 34.2271 27.9608C36.1943 25.7347 37.3733 23.0766 37.669 21.4299C37.7463 20.9989 37.8538 20.8922 37.8542 20.8918C37.8718 20.8803 37.958 20.8418 38.3223 20.8321C38.6978 20.8221 38.7137 20.8214 38.9287 21.4352C38.9657 21.5406 39.0015 21.6416 39.0386 21.7356C40.5007 25.4312 41.7844 28.0606 43.6635 29.7475C45.6507 31.5316 48.0908 32.0744 51.1432 32.3405C51.6933 32.3885 52.2199 32.4126 52.7234 32.4126C55.7543 32.4126 57.9467 31.5407 59.3976 29.7666C59.4346 29.7214 59.4681 29.6744 59.5036 29.6284C59.5685 30.4161 59.6017 31.2075 59.6017 32C59.6017 47.7638 46.777 60.5885 31.0134 60.5885C15.2498 60.5885 2.42464 47.7636 2.42464 32C2.42464 16.2364 15.2495 3.41146 31.0132 3.41146C37.3293 3.41146 43.3157 5.42947 48.3254 9.24749C48.8579 9.65349 49.6188 9.55062 50.0244 9.01824C50.4303 8.48573 50.3277 7.7251 49.795 7.31923C44.3596 3.17645 37.8648 0.986816 31.0132 0.986816C13.9123 0.986816 0 14.8991 0 32C0 49.1008 13.9123 63.0132 31.0132 63.0132C48.1138 63.0132 62.0262 49.1008 62.0262 32C62.0262 29.7387 61.7791 27.4851 61.2966 25.2951C61.4162 24.7333 61.515 24.1756 61.6098 23.6366C61.7713 22.7189 61.9237 21.8522 62.152 21.1249C62.2136 20.9287 62.2577 20.8256 62.2842 20.7736C62.3117 20.7698 62.3513 20.7661 62.4053 20.7649C63.0065 20.7516 63.5068 20.2999 63.5815 19.7034L63.9906 16.4309C64.0688 15.8064 63.6563 15.2263 63.0411 15.0948ZM61.2816 18.5548C60.2835 18.981 59.9851 19.9322 59.8386 20.3991C59.563 21.2767 59.3973 22.2188 59.2217 23.2166C59.1162 23.8163 59.0127 24.4033 58.8896 24.9657C58.8781 25.0065 58.8687 25.048 58.8615 25.09C58.1746 28.1296 56.8534 30.4054 51.3533 29.9251C45.6562 29.4284 44.1519 28.0703 41.2927 20.8437C41.2668 20.7782 41.2422 20.7074 41.2166 20.6339C40.9816 19.9628 40.4368 18.4069 38.3707 18.4069C38.3332 18.4069 38.295 18.4074 38.2565 18.4085C37.5671 18.4272 35.7358 18.4764 35.2823 21.0017C34.8732 23.2802 31.5479 29.8869 24.9979 29.8869C24.9946 29.8869 24.9906 29.8869 24.9874 29.8869C19.3715 29.8807 17.1791 27.2575 16.8983 20.2082C16.8596 19.2297 16.302 18.4758 15.4321 18.1334L15.2308 16.8162C22.9348 15.2568 29.1084 16.2178 34.6432 17.5075L34.8082 17.546C35.8118 17.7808 36.9495 18.0467 38.1633 18.0838C40.2006 18.1459 42.3864 17.6767 44.443 17.16C51.048 15.5008 56.3013 16.1834 61.4467 17.2382L61.2816 18.5548Z" fill="rgba(255,255,255,0.6)"/>
<path d="M47.4742 39.7604C46.8136 39.6508 46.1896 40.0977 46.0799 40.7581C45.6867 43.1286 44.1291 45.1195 42.0146 45.9537C39.8443 46.8095 37.3747 46.4217 35.5688 44.9407C35.0509 44.5162 34.2869 44.5917 33.8624 45.1095C33.4379 45.6272 33.5134 46.3911 34.0312 46.8156C35.6429 48.1372 37.6389 48.8264 39.6576 48.8264C40.7522 48.8264 41.8538 48.6236 42.9042 48.2092C45.8067 47.0644 47.9401 44.3611 48.472 41.1548C48.5816 40.4943 48.135 39.8701 47.4742 39.7604Z" fill="rgba(255,255,255,0.6)"/>
<path d="M52.1598 12.1362C52.8294 12.1362 53.3722 11.5934 53.3722 10.9238C53.3722 10.2542 52.8294 9.71143 52.1598 9.71143C51.4902 9.71143 50.9474 10.2542 50.9474 10.9238C50.9474 11.5934 51.4902 12.1362 52.1598 12.1362Z" fill="rgba(255,255,255,0.6)"/>
</g>
<defs>
<clipPath id="clip0">
<rect width="64" height="64" fill="white"/>
</clipPath>
</defs>
</svg>
