<svg width="54" height="54" viewBox="0 0 54 54" fill="none" xmlns="http://www.w3.org/2000/svg">
<g clip-path="url(#clip0)">
<path d="M23.0781 10.5364C22.7294 10.2732 22.2333 10.3426 21.9702 10.6914C21.7827 10.9397 21.4973 11.0822 21.1869 11.0822C20.8779 11.0822 20.5934 10.9408 20.4058 10.6943C20.1413 10.3466 19.6449 10.2792 19.2972 10.5437C18.9496 10.8083 18.8821 11.3045 19.1466 11.6523C19.6359 12.2955 20.3796 12.6644 21.1869 12.6644C21.9981 12.6644 22.744 12.2927 23.2332 11.6444C23.4962 11.2956 23.4268 10.7996 23.0781 10.5364V10.5364Z" fill="white" fill-opacity="0.6"/>
<path d="M27.2079 43.3127C26.771 43.3127 26.4168 43.6668 26.4168 44.1038V50.0281C26.4168 51.3028 25.4116 52.3743 24.1759 52.4165C23.4778 52.4412 22.8141 52.1545 22.3528 51.6321C22.0793 51.3223 21.8807 50.6936 21.8807 50.1366V36.0176C21.8807 35.5807 21.5265 35.2266 21.0896 35.2266C20.6527 35.2266 20.2985 35.5807 20.2985 36.0176V50.1366C20.2985 51.3556 19.3768 52.3551 18.1999 52.412C18.162 52.4139 18.1238 52.4148 18.0855 52.4148C16.8046 52.4148 15.7626 51.3726 15.7626 50.0918V24.0697C15.7626 23.2054 15.3376 22.3983 14.6255 21.9093L10.3848 18.9089C10.0282 18.6564 9.53448 18.7411 9.28207 19.0977C9.02976 19.4543 9.11425 19.9481 9.47098 20.2004L13.7165 23.2043C13.7202 23.2068 13.7238 23.2095 13.7275 23.2119C14.0111 23.4055 14.1804 23.7262 14.1804 24.0697V50.0918C14.1804 52.2451 15.9322 53.9969 18.0855 53.9969C18.1497 53.9969 18.2135 53.9954 18.2767 53.9923C19.407 53.9376 20.4002 53.3838 21.0562 52.5451C21.0916 52.5911 21.1285 52.6358 21.1668 52.6792C21.9121 53.5232 22.9727 53.9999 24.0944 53.9999C24.1394 53.9999 24.1847 53.9992 24.2299 53.9976C26.3081 53.9265 27.9988 52.1456 27.9988 50.0279V44.1036C27.999 43.6668 27.6448 43.3127 27.2079 43.3127V43.3127Z" fill="white" fill-opacity="0.6"/>
<path d="M45.0207 32.795C45.38 34.3378 46.7656 35.4911 48.4162 35.4911C50.339 35.4911 51.9035 33.9267 51.9035 32.0039C51.9035 30.081 50.3391 28.5166 48.4162 28.5166C46.7656 28.5166 45.38 29.6699 45.0207 31.2128H38.9695V21.5284H45.0207C45.38 23.0713 46.7656 24.2246 48.4162 24.2246C50.339 24.2246 51.9035 22.6602 51.9035 20.7374C51.9035 18.8145 50.3391 17.2501 48.4162 17.2501C46.7656 17.2501 45.38 18.4034 45.0207 19.9463H38.1784C37.7415 19.9463 37.3873 20.3004 37.3873 20.7374V31.2128H30.8618C30.5418 29.8391 29.4086 28.7743 27.9988 28.5573V24.0696C27.9988 23.7261 28.1681 23.4054 28.4517 23.2118C28.4554 23.2094 28.4591 23.2067 28.4627 23.2042L38.6518 15.9947C39.4275 15.4882 39.9393 14.672 40.0569 13.7523C40.1753 12.8265 39.8808 11.9017 39.2488 11.2148C38.2324 10.1101 36.5646 9.87567 35.2831 10.6572C35.2669 10.6671 35.2511 10.6774 35.2357 10.6885L29.3929 14.854L26.8463 16.3698C26.454 16.6031 25.9711 16.6313 25.5545 16.4445C25.0285 16.2086 24.6278 15.7792 24.4195 15.263C27.2111 14.0206 29.1634 11.2222 29.1634 7.97462C29.1636 3.57742 25.5861 0 21.1888 0C16.7915 0 13.2141 3.57742 13.2141 7.97473C13.2141 11.2119 15.1539 14.0026 17.9313 15.251C17.5181 16.1679 16.3204 16.9577 15.3328 16.3699C15.3243 16.3648 12.7861 14.854 12.7861 14.854L6.94333 10.6886C6.92793 10.6776 6.91211 10.6672 6.89597 10.6573C5.6143 9.87588 3.94657 10.1103 2.93029 11.2149C2.29826 11.9018 2.00376 12.8265 2.12211 13.7524C2.23972 14.6721 2.7515 15.4884 3.5273 15.9948L6.46973 18.0768C6.82625 18.3293 7.3201 18.2446 7.57251 17.8879C7.82493 17.5313 7.74033 17.0376 7.3836 16.7853L4.4283 14.6942C4.41901 14.6875 4.40952 14.6812 4.39992 14.675C4.00881 14.4228 3.75049 14.0134 3.69153 13.5517C3.63256 13.09 3.77939 12.6288 4.09456 12.2863C4.59559 11.7417 5.41421 11.6212 6.05035 11.9951L11.8942 16.1614C11.9119 16.1739 11.9302 16.1857 11.9488 16.1969C11.9488 16.1969 14.5191 17.7269 14.5235 17.7294C16.3465 18.8146 18.7064 17.5782 19.4384 15.7537C20.002 15.8805 20.5873 15.9496 21.1888 15.9496C21.782 15.9496 22.3595 15.8825 22.916 15.759C23.2629 16.69 23.9695 17.4678 24.9074 17.8883C25.7937 18.2856 26.8212 18.2263 27.6557 17.7293L30.2303 16.1968C30.249 16.1857 30.2672 16.1738 30.285 16.1613L36.1288 11.9949C36.7648 11.6212 37.5835 11.7417 38.0846 12.2862C38.3998 12.6287 38.5466 13.0899 38.4876 13.5516C38.4287 14.0133 38.1703 14.4228 37.7792 14.6748C37.7696 14.6811 37.7601 14.6874 37.7509 14.694L27.5538 21.9091C26.8416 22.3981 26.4166 23.2051 26.4166 24.0695V28.6782C25.0052 29.1247 23.9791 30.4465 23.9791 32.0037C23.9791 33.5608 25.0052 34.8826 26.4166 35.3291V40.4644C26.4166 40.9014 26.7708 41.2555 27.2077 41.2555C27.6446 41.2555 27.9988 40.9014 27.9988 40.4644V35.4504C29.4087 35.2334 30.5418 34.1686 30.8618 32.795H37.3873V43.2704C37.3873 43.7074 37.7415 44.0615 38.1784 44.0615H45.0207C45.38 45.6043 46.7656 46.7576 48.4162 46.7576C50.339 46.7576 51.9035 45.1933 51.9035 43.2704C51.9035 41.3475 50.3391 39.7831 48.4162 39.7831C46.7656 39.7831 45.38 40.9364 45.0207 42.4793H38.9695V32.795H45.0207ZM48.4162 30.0988C49.4666 30.0988 50.3213 30.9534 50.3213 32.0039C50.3213 33.0543 49.4667 33.9089 48.4162 33.9089C47.3658 33.9089 46.5112 33.0543 46.5112 32.0039C46.5112 30.9534 47.3659 30.0988 48.4162 30.0988ZM48.4162 18.8323C49.4666 18.8323 50.3213 19.6869 50.3213 20.7374C50.3213 21.7878 49.4667 22.6424 48.4162 22.6424C47.3658 22.6424 46.5112 21.7878 46.5112 20.7374C46.5112 19.6869 47.3659 18.8323 48.4162 18.8323ZM21.1888 14.3674C17.6639 14.3674 14.7962 11.4996 14.7962 7.97483C14.7962 4.45005 17.6639 1.58218 21.1888 1.58218C24.7137 1.58218 27.5813 4.44994 27.5813 7.97473C27.5813 11.4995 24.7137 14.3674 21.1888 14.3674V14.3674ZM27.4664 33.9089C26.416 33.9089 25.5613 33.0543 25.5613 32.0039C25.5613 30.9534 26.4159 30.0988 27.4664 30.0988C28.5168 30.0988 29.3714 30.9534 29.3714 32.0039C29.3714 33.0543 28.5168 33.9089 27.4664 33.9089ZM48.4162 41.3654C49.4666 41.3654 50.3213 42.22 50.3213 43.2705C50.3213 44.3209 49.4667 45.1755 48.4162 45.1755C47.3658 45.1755 46.5112 44.3209 46.5112 43.2705C46.5112 42.22 47.3659 41.3654 48.4162 41.3654Z" fill="white" fill-opacity="0.6"/>
</g>
<defs>
<clipPath id="clip0">
<rect width="54" height="54" fill="white"/>
</clipPath>
</defs>
</svg>
